<svg width="40" height="40" viewBox="0 0 40 40" fill="none" xmlns="http://www.w3.org/2000/svg">
<path d="M28.2442 27.8367C28.5325 26.3617 28.0709 24.8467 27.0092 23.785L16.2109 12.9867C15.1492 11.9233 13.6325 11.4633 12.1609 11.7517C10.6875 12.0417 9.45921 13.0383 8.87588 14.425L0.295876 34.8017C-0.297457 36.21 0.0175428 37.8183 1.09754 38.8983C1.81588 39.6167 2.76754 39.9967 3.73754 39.9967C4.22754 39.9967 4.72254 39.8983 5.19588 39.7L25.5742 31.1217C26.9592 30.5383 27.9575 29.31 28.2459 27.8367H28.2442ZM3.90088 36.6267C3.73588 36.6983 3.58421 36.6683 3.45421 36.54C3.32421 36.4117 3.29588 36.26 3.36754 36.0917L9.15421 22.3467L17.6475 30.8383L3.90088 36.6267ZM24.9742 27.195C24.9375 27.3783 24.7992 27.83 24.2792 28.0483L20.9642 29.4433L10.5509 19.0317L11.9475 15.715C12.1659 15.1967 12.6175 15.0567 12.8009 15.0217C12.8559 15.01 12.9359 15 13.0309 15C13.2575 15 13.5742 15.0617 13.8542 15.3417L24.6525 26.14C25.0509 26.5383 25.0092 27.01 24.9742 27.195ZM22.8692 0.628333C23.4442 -0.0866666 24.4792 -0.205 25.1959 0.358333C25.3342 0.468333 28.6125 3.11 28.3259 7.60667C28.2142 9.36833 27.5392 11.0717 26.3225 12.675C25.9959 13.1067 25.4975 13.335 24.9942 13.335C24.6442 13.335 24.2892 13.225 23.9875 12.9967C23.2542 12.44 23.1109 11.395 23.6675 10.6617C24.4809 9.59 24.9275 8.49167 24.9975 7.39667C25.1709 4.67833 23.2009 3.03833 23.1175 2.97C22.4092 2.39 22.2942 1.34333 22.8675 0.631667L22.8692 0.628333ZM39.2909 23.0283C38.9992 23.2333 38.6642 23.3333 38.3325 23.3333C37.8142 23.3333 37.3059 23.0933 36.9809 22.645C36.9309 22.58 36.2142 21.6667 34.9975 21.6667C34.4259 21.6667 33.9192 21.83 33.4925 22.1517C32.7575 22.7083 31.7125 22.56 31.1575 21.8267C30.6025 21.0933 30.7492 20.0467 31.4842 19.4933C32.4892 18.735 33.7042 18.335 34.9975 18.335C37.3842 18.335 39.0709 19.8267 39.6925 20.7083C40.2225 21.46 40.0425 22.5 39.2909 23.0317V23.0283ZM34.9975 2.5C34.9975 1.12 36.1175 0 37.4975 0C38.8775 0 39.9975 1.12 39.9975 2.5C39.9975 3.88 38.8775 5 37.4975 5C36.1175 5 34.9975 3.88 34.9975 2.5ZM31.6642 10.8333C31.6642 9.45333 32.7842 8.33333 34.1642 8.33333C35.5442 8.33333 36.6642 9.45333 36.6642 10.8333C36.6642 12.2133 35.5442 13.3333 34.1642 13.3333C32.7842 13.3333 31.6642 12.2133 31.6642 10.8333ZM13.3292 4.16667C13.3292 2.78667 14.4492 1.66667 15.8292 1.66667C17.2092 1.66667 18.3292 2.78667 18.3292 4.16667C18.3292 5.54667 17.2092 6.66667 15.8292 6.66667C14.4492 6.66667 13.3292 5.54667 13.3292 4.16667ZM38.3292 30.8333C38.3292 32.2133 37.2092 33.3333 35.8292 33.3333C34.4492 33.3333 33.3292 32.2133 33.3292 30.8333C33.3292 29.4533 34.4492 28.3333 35.8292 28.3333C37.2092 28.3333 38.3292 29.4533 38.3292 30.8333ZM1.66254 5.83333C1.66254 4.45333 2.78254 3.33333 4.16254 3.33333C5.54254 3.33333 6.66254 4.45333 6.66254 5.83333C6.66254 7.21333 5.54254 8.33333 4.16254 8.33333C2.78254 8.33333 1.66254 7.21333 1.66254 5.83333ZM29.9959 37.5C29.9959 38.88 28.8759 40 27.4959 40C26.1159 40 24.9959 38.88 24.9959 37.5C24.9959 36.12 26.1159 35 27.4959 35C28.8759 35 29.9959 36.12 29.9959 37.5Z" fill="#E5E6E7"/>
</svg>
