<svg width="15" height="10" viewBox="0 0 15 10" fill="none" xmlns="http://www.w3.org/2000/svg">
<path d="M14.34 3.15435L11.4375 0.221849C11.3678 0.151552 11.2848 0.0957565 11.1934 0.05768C11.102 0.0196035 11.004 0 10.905 0C10.806 0 10.708 0.0196035 10.6166 0.05768C10.5252 0.0957565 10.4422 0.151552 10.3725 0.221849C10.2328 0.362371 10.1544 0.552459 10.1544 0.750599C10.1544 0.948738 10.2328 1.13883 10.3725 1.27935L13.0425 3.97185H0.75C0.551088 3.97185 0.360323 4.05087 0.21967 4.19152C0.079018 4.33217 0 4.52294 0 4.72185C0 4.92076 0.079018 5.11153 0.21967 5.25218C0.360323 5.39283 0.551088 5.47185 0.75 5.47185H13.0875L10.3725 8.17935C10.3022 8.24907 10.2464 8.33202 10.2083 8.42342C10.1703 8.51481 10.1507 8.61284 10.1507 8.71185C10.1507 8.81086 10.1703 8.90889 10.2083 9.00028C10.2464 9.09168 10.3022 9.17463 10.3725 9.24435C10.4422 9.31465 10.5252 9.37044 10.6166 9.40852C10.708 9.4466 10.806 9.4662 10.905 9.4662C11.004 9.4662 11.102 9.4466 11.1934 9.40852C11.2848 9.37044 11.3678 9.31465 11.4375 9.24435L14.34 6.33435C14.7614 5.91247 14.998 5.3406 14.998 4.74435C14.998 4.1481 14.7614 3.57623 14.34 3.15435Z" fill="#5F6368"/>
</svg>
